<?xml version="1.0" encoding="utf-8"?>
<svg viewBox="0 0 20 20" fill="none" xmlns="http://www.w3.org/2000/svg">
  <path stroke-linecap="round" stroke-linejoin="round" stroke-width="2" d="M8.783 19h-6.85A.97.97 0 0 1 1 18V5.828a2 2 0 0 1 .586-1.414l2.828-2.828A2 2 0 0 1 5.828 1h8.239A.97.97 0 0 1 15 2v2.478M6 1v4a1 1 0 0 1-1" style="stroke: rgb(70, 130, 169);" transform="matrix(0.9999999999999999, 0, 0, 0.9999999999999999, -2.220446049250313e-16, -2.220446049250313e-16)"/>
  <path class="flame" stroke-linecap="round" stroke-linejoin="round" stroke-width="2" d="M 16.158 14.601 C 15.208 16.089 13.552 16.974 11.787 16.936 C 10.14 17.009 8.574 16.22 7.651 14.854 C 5.759 11.667 7.853 8.685 8.278 8.112 C 9.044 7.305 9.317 6.148 8.992 5.084 C 9.901 5.757 13.544 7.356 12.902 12.499 C 13.962 11.706 14.813 10.373 14.917 8.163 C 15.929 8.904 17.737 11.972 16.158 14.601 Z" style="stroke: rgb(70, 130, 169);" transform="matrix(0.9999999999999999, 0, 0, 0.9999999999999999, -2.220446049250313e-16, -2.220446049250313e-16)"/>
</svg>